<?xml version="1.0" encoding="UTF-8"?>
<svg xmlns="http://www.w3.org/2000/svg" width="1800" height="1200" viewBox="0 0 1800 1200">
<defs><marker id="arrow" markerWidth="12" markerHeight="12" refX="10" refY="5" orient="auto"><path d="M0,0 L10,5 L0,10 z" fill="#6B8495"/></marker><filter id="shadow"><feDropShadow dx="0" dy="4" stdDeviation="6" flood-color="#17324D" flood-opacity="0.12"/></filter></defs>
<rect width="1800" height="1200" fill="#F7FAFC"/>
<g id="title" data-editable="true"><text x="70" y="67" font-family="Noto Sans SC Thin" font-size="42" font-weight="800" fill="#17324D" text-anchor="start">机器学习如何加速鲜味肽发现？</text><text x="70" y="105" font-family="Noto Sans SC Thin" font-size="23" font-weight="400" fill="#5B7082" text-anchor="start">从食源候选生成、智能筛选到受体机制与真实感官证据</text><rect x="1515" y="48" width="215" height="36" rx="18" fill="#E2F4F0" stroke="none" stroke-width="1.5"/><text x="1622.5" y="73" font-family="Noto Sans SC Thin" font-size="18" font-weight="700" fill="#138A7E" text-anchor="middle">图形综述 · 2026</text></g>
<path d="M35,155 C180,125 405,130 540,180 L540,905 C390,950 165,940 35,875 Z" fill="#E5F2FA" stroke="none" stroke-width="2" stroke-linecap="round" stroke-linejoin="round"/>
<path d="M570,180 C760,125 1085,125 1235,180 L1235,910 C1060,955 760,955 570,900 Z" fill="#FFF1D8" stroke="none" stroke-width="2" stroke-linecap="round" stroke-linejoin="round"/>
<path d="M1265,180 C1415,130 1635,125 1765,165 L1765,900 C1610,950 1410,950 1265,905 Z" fill="#EAF4DF" stroke="none" stroke-width="2" stroke-linecap="round" stroke-linejoin="round"/>
<g id="zone-headings" data-editable="true"><circle cx="83" cy="180" r="26" fill="#2B7FB3" stroke="none" stroke-width="1.5"/><text x="83" y="189" font-family="Noto Sans SC Thin" font-size="24" font-weight="800" fill="#FFFFFF" text-anchor="middle">1</text><text x="122" y="190" font-family="Noto Sans SC Thin" font-size="29" font-weight="800" fill="#17324D" text-anchor="start">构建候选肽空间</text><circle cx="620" cy="180" r="26" fill="#D18418" stroke="none" stroke-width="1.5"/><text x="620" y="189" font-family="Noto Sans SC Thin" font-size="24" font-weight="800" fill="#FFFFFF" text-anchor="middle">2</text><text x="660" y="190" font-family="Noto Sans SC Thin" font-size="29" font-weight="800" fill="#17324D" text-anchor="start">AI 虚拟筛选与排序</text><circle cx="1315" cy="180" r="26" fill="#5A8F36" stroke="none" stroke-width="1.5"/><text x="1315" y="189" font-family="Noto Sans SC Thin" font-size="24" font-weight="800" fill="#FFFFFF" text-anchor="middle">3</text><text x="1355" y="190" font-family="Noto Sans SC Thin" font-size="29" font-weight="800" fill="#17324D" text-anchor="start">机制解释与实验闭环</text></g>
<g id="icon-food-fish" data-editable="true"><circle cx="105" cy="290" r="52" fill="#E5F2FA" stroke="none" stroke-width="1.5"/><path d="M76,290 C100,267 129,270 140,290 C129,310 100,313 76,290 Z" fill="#2B7FB3" stroke="none" stroke-width="2" stroke-linecap="round" stroke-linejoin="round"/><path d="M76,290 L56,271 L57,309 Z" fill="#2B7FB3" stroke="none" stroke-width="2" stroke-linecap="round" stroke-linejoin="round"/><circle cx="126" cy="284" r="3.5" fill="#FFFFFF" stroke="none" stroke-width="1.5"/><line x1="102" y1="273" x2="109" y2="259" stroke="#2B7FB3" stroke-width="5" stroke-linecap="round"/></g>
<g id="icon-food-soy" data-editable="true"><circle cx="235" cy="290" r="52" fill="#E2F4F0" stroke="none" stroke-width="1.5"/><path d="M205,317 C223,294 243,277 267,261" fill="none" stroke="#138A7E" stroke-width="5" stroke-linecap="round" stroke-linejoin="round"/><path d="M217,301 C189,294 193,266 224,275 Z" fill="#138A7E" stroke="none" stroke-width="2" stroke-linecap="round" stroke-linejoin="round"/><path d="M240,282 C240,252 269,247 266,278 Z" fill="#138A7E" stroke="none" stroke-width="2" stroke-linecap="round" stroke-linejoin="round"/><circle cx="249" cy="306" r="11" fill="#FFF1D8" stroke="#D18418" stroke-width="1.5"/><circle cx="270" cy="297" r="9" fill="#FFF1D8" stroke="#D18418" stroke-width="1.5"/></g>
<g id="icon-food-mushroom" data-editable="true"><circle cx="365" cy="290" r="52" fill="#FFF1D8" stroke="none" stroke-width="1.5"/><path d="M325,290 C330,248 400,248 405,290 Z" fill="#D18418" stroke="none" stroke-width="2" stroke-linecap="round" stroke-linejoin="round"/><rect x="353" y="289" width="24" height="38" rx="8" fill="#FFFFFF" stroke="#D18418" stroke-width="3"/><circle cx="346" cy="275" r="4" fill="#FFFFFF" stroke="none" stroke-width="1.5"/><circle cx="380" cy="268" r="5" fill="#FFFFFF" stroke="none" stroke-width="1.5"/></g>
<g id="icon-fermentation" data-editable="true"><circle cx="495" cy="290" r="52" fill="#EEE8F8" stroke="none" stroke-width="1.5"/><rect x="466" y="263" width="58" height="65" rx="13" fill="#FFFFFF" stroke="#7355A5" stroke-width="3"/><rect x="460" y="256" width="70" height="13" rx="6" fill="#7355A5" stroke="none" stroke-width="1.5"/><path d="M475,299 C488,289 502,308 516,295" fill="none" stroke="#7355A5" stroke-width="4" stroke-linecap="round" stroke-linejoin="round"/><circle cx="482" cy="288" r="4" fill="#EEE8F8" stroke="#7355A5" stroke-width="1.5"/><circle cx="509" cy="285" r="4" fill="#EEE8F8" stroke="#7355A5" stroke-width="1.5"/></g>
<g id="food-labels" data-editable="true"><text x="105" y="365" font-family="Noto Sans SC Thin" font-size="18" font-weight="700" fill="#2B7FB3" text-anchor="middle">水产</text><text x="235" y="365" font-family="Noto Sans SC Thin" font-size="18" font-weight="700" fill="#138A7E" text-anchor="middle">豆类</text><text x="365" y="365" font-family="Noto Sans SC Thin" font-size="18" font-weight="700" fill="#D18418" text-anchor="middle">菌菇</text><text x="495" y="365" font-family="Noto Sans SC Thin" font-size="18" font-weight="700" fill="#7355A5" text-anchor="middle">发酵食品</text></g>
<path d="M105,385 C155,420 200,420 240,430 M235,385 C240,410 250,420 265,430 M365,385 C335,415 320,420 300,430 M495,385 C430,420 385,425 330,435" fill="none" stroke="#AFC2CF" stroke-width="2" stroke-linecap="round" stroke-linejoin="round"/>
<g id="icon-protein-chain" data-editable="true"><path d="M150,455 L183,433 L216,468 L249,440 L282,472 L315,450 L348,467" fill="none" stroke="#2B7FB3" stroke-width="5" stroke-linecap="round" stroke-linejoin="round"/><circle cx="150" cy="455" r="12" fill="#2B7FB3" stroke="#FFFFFF" stroke-width="2"/><circle cx="183" cy="433" r="12" fill="#138A7E" stroke="#FFFFFF" stroke-width="2"/><circle cx="216" cy="468" r="12" fill="#D18418" stroke="#FFFFFF" stroke-width="2"/><circle cx="249" cy="440" r="12" fill="#2B7FB3" stroke="#FFFFFF" stroke-width="2"/><circle cx="282" cy="472" r="12" fill="#138A7E" stroke="#FFFFFF" stroke-width="2"/><circle cx="315" cy="450" r="12" fill="#D18418" stroke="#FFFFFF" stroke-width="2"/><circle cx="348" cy="467" r="12" fill="#2B7FB3" stroke="#FFFFFF" stroke-width="2"/></g>
<g id="icon-virtual-digestion" data-editable="true"><circle cx="393" cy="465" r="10" fill="#FFFFFF" stroke="#B64B4B" stroke-width="3"/><circle cx="417" cy="465" r="10" fill="#FFFFFF" stroke="#B64B4B" stroke-width="3"/><line x1="400" y1="457" x2="433" y2="427" stroke="#B64B4B" stroke-width="4" stroke-linecap="round"/><line x1="410" y1="457" x2="377" y2="427" stroke="#B64B4B" stroke-width="4" stroke-linecap="round"/></g>
<g id="peptide-fragments" data-editable="true"><rect x="105" y="523" width="64" height="36" rx="18" fill="#FFFFFF" stroke="none" stroke-width="1.5"/><text x="137.0" y="548" font-family="Noto Sans SC Thin" font-size="18" font-weight="700" fill="#2B7FB3" text-anchor="middle">DDE</text><rect x="180" y="523" width="74" height="36" rx="18" fill="#FFFFFF" stroke="none" stroke-width="1.5"/><text x="217.0" y="548" font-family="Noto Sans SC Thin" font-size="18" font-weight="700" fill="#138A7E" text-anchor="middle">SHHPR</text><rect x="265" y="523" width="62" height="36" rx="18" fill="#FFFFFF" stroke="none" stroke-width="1.5"/><text x="296.0" y="548" font-family="Noto Sans SC Thin" font-size="18" font-weight="700" fill="#D18418" text-anchor="middle">EELR</text><text x="405" y="535" font-family="Noto Sans SC Thin" font-size="18" font-weight="700" fill="#B64B4B" text-anchor="middle">虚拟酶解</text></g>
<g id="icon-lcms" data-editable="true"><rect x="100" y="623" width="130" height="104" rx="16" fill="#FFFFFF" stroke="#2B7FB3" stroke-width="3"/><rect x="120" y="642" width="58" height="56" rx="7" fill="#E5F2FA" stroke="none" stroke-width="1.5"/><line x1="130" y1="688" x2="130" y2="673" stroke="#2B7FB3" stroke-width="4" stroke-linecap="round"/><line x1="143" y1="688" x2="143" y2="657" stroke="#2B7FB3" stroke-width="4" stroke-linecap="round"/><line x1="156" y1="688" x2="156" y2="666" stroke="#2B7FB3" stroke-width="4" stroke-linecap="round"/><circle cx="203" cy="658" r="11" fill="#E2F4F0" stroke="#138A7E" stroke-width="3"/><circle cx="203" cy="694" r="11" fill="#FFF1D8" stroke="#D18418" stroke-width="3"/></g>
<text x="165" y="752" font-family="Noto Sans SC Thin" font-size="20" font-weight="700" fill="#2B7FB3" text-anchor="middle">LC–MS/MS 肽组学</text>
<g id="in-silico-source" data-editable="true"><circle cx="405" cy="675" r="62" fill="#FFFFFF" stroke="#138A7E" stroke-width="3"/><text x="405" y="666" font-family="Noto Sans SC Thin" font-size="19" font-weight="800" fill="#138A7E" text-anchor="middle">in silico</text><text x="405" y="694" font-family="Noto Sans SC Thin" font-size="17" font-weight="600" fill="#138A7E" text-anchor="middle">酶解 / 宏基因组</text></g>
<path d="M165,775 C230,830 335,830 405,755" fill="none" stroke="#2B7FB3" stroke-width="3" stroke-linecap="round" stroke-linejoin="round" marker-end="url(#arrow)"/>
<rect x="115" y="842" width="350" height="36" rx="18" fill="#FFFFFF" stroke="none" stroke-width="1.5"/><text x="290.0" y="867" font-family="Noto Sans SC Thin" font-size="18" font-weight="700" fill="#2B7FB3" text-anchor="middle">多来源、去重、可追溯候选库</text>
<path d="M505,610 C560,610 570,430 625,430" fill="none" stroke="#6B8495" stroke-width="4" stroke-linecap="round" stroke-linejoin="round" marker-end="url(#arrow)"/>
<g id="icon-peptide-database" data-editable="true"><path d="M615,300 L615,393 C615,413 755,413 755,393 L755,300" fill="#E2F4F0" stroke="#138A7E" stroke-width="3" stroke-linecap="round" stroke-linejoin="round"/><path d="M615,300 C615,277 755,277 755,300 C755,323 615,323 615,300 Z" fill="#FFFFFF" stroke="#138A7E" stroke-width="3" stroke-linecap="round" stroke-linejoin="round"/><path d="M615,345 C615,366 755,366 755,345" fill="none" stroke="#138A7E" stroke-width="2" stroke-linecap="round" stroke-linejoin="round"/><path d="M615,380 C615,401 755,401 755,380" fill="none" stroke="#138A7E" stroke-width="2" stroke-linecap="round" stroke-linejoin="round"/></g>
<g id="db-label" data-editable="true"><text x="685" y="324" font-family="Noto Sans SC Thin" font-size="18" font-weight="700" fill="#138A7E" text-anchor="middle">鲜味 / 非鲜味</text><text x="685" y="352" font-family="Noto Sans SC Thin" font-size="18" font-weight="700" fill="#138A7E" text-anchor="middle">序列 + 标签</text><text x="685" y="443" font-family="Noto Sans SC Thin" font-size="15" font-weight="600" fill="#5B7082" text-anchor="middle">TastePeptidesDB · BIOPEP</text><text x="685" y="463" font-family="Noto Sans SC Thin" font-size="15" font-weight="600" fill="#5B7082" text-anchor="middle">+ 自建数据</text></g>
<g id="feature-aac" data-editable="true"><path d="M828,300 L851,260 L899,260 L922,300 L899,340 L851,340 Z" fill="#FFFFFF" stroke="#2B7FB3" stroke-width="3" stroke-linecap="round" stroke-linejoin="round"/><text x="875" y="307" font-family="Noto Sans SC Thin" font-size="18" font-weight="700" fill="#2B7FB3" text-anchor="middle">AAC</text></g>
<g id="feature-dpc" data-editable="true"><path d="M953,300 L976,260 L1024,260 L1047,300 L1024,340 L976,340 Z" fill="#FFFFFF" stroke="#138A7E" stroke-width="3" stroke-linecap="round" stroke-linejoin="round"/><text x="1000" y="307" font-family="Noto Sans SC Thin" font-size="18" font-weight="700" fill="#138A7E" text-anchor="middle">DPC</text></g>
<g id="feature-ctd" data-editable="true"><path d="M1078,300 L1101,260 L1149,260 L1172,300 L1149,340 L1101,340 Z" fill="#FFFFFF" stroke="#7355A5" stroke-width="3" stroke-linecap="round" stroke-linejoin="round"/><text x="1125" y="307" font-family="Noto Sans SC Thin" font-size="18" font-weight="700" fill="#7355A5" text-anchor="middle">CTD</text></g>
<g id="feature-physchem" data-editable="true"><path d="M828,420 L851,380 L899,380 L922,420 L899,460 L851,460 Z" fill="#FFFFFF" stroke="#D18418" stroke-width="3" stroke-linecap="round" stroke-linejoin="round"/><text x="875" y="427" font-family="Noto Sans SC Thin" font-size="18" font-weight="700" fill="#D18418" text-anchor="middle">理化</text></g>
<g id="feature-bert" data-editable="true"><path d="M1078,420 L1101,380 L1149,380 L1172,420 L1149,460 L1101,460 Z" fill="#FFFFFF" stroke="#B64B4B" stroke-width="3" stroke-linecap="round" stroke-linejoin="round"/><text x="1125" y="427" font-family="Noto Sans SC Thin" font-size="18" font-weight="700" fill="#B64B4B" text-anchor="middle">BERT</text></g>
<g id="icon-ai-network" data-editable="true"><circle cx="1000" cy="540" r="88" fill="#FFF1D8" stroke="#D18418" stroke-width="4"/><line x1="952" y1="512" x2="1000" y2="488" stroke="#D18418" stroke-width="2" stroke-linecap="round"/><line x1="952" y1="512" x2="1000" y2="540" stroke="#D18418" stroke-width="2" stroke-linecap="round"/><line x1="952" y1="570" x2="1000" y2="540" stroke="#D18418" stroke-width="2" stroke-linecap="round"/><line x1="952" y1="570" x2="1000" y2="592" stroke="#D18418" stroke-width="2" stroke-linecap="round"/><line x1="1000" y1="488" x2="1048" y2="512" stroke="#D18418" stroke-width="2" stroke-linecap="round"/><line x1="1000" y1="540" x2="1048" y2="512" stroke="#D18418" stroke-width="2" stroke-linecap="round"/><line x1="1000" y1="540" x2="1048" y2="570" stroke="#D18418" stroke-width="2" stroke-linecap="round"/><line x1="1000" y1="592" x2="1048" y2="570" stroke="#D18418" stroke-width="2" stroke-linecap="round"/><line x1="1000" y1="488" x2="1000" y2="540" stroke="#D18418" stroke-width="2" stroke-linecap="round"/><line x1="1000" y1="540" x2="1000" y2="592" stroke="#D18418" stroke-width="2" stroke-linecap="round"/><circle cx="952" cy="512" r="9" fill="#FFFFFF" stroke="#D18418" stroke-width="3"/><circle cx="952" cy="570" r="9" fill="#FFFFFF" stroke="#D18418" stroke-width="3"/><circle cx="1000" cy="488" r="9" fill="#FFFFFF" stroke="#D18418" stroke-width="3"/><circle cx="1000" cy="540" r="9" fill="#FFFFFF" stroke="#D18418" stroke-width="3"/><circle cx="1000" cy="592" r="9" fill="#FFFFFF" stroke="#D18418" stroke-width="3"/><circle cx="1048" cy="512" r="9" fill="#FFFFFF" stroke="#D18418" stroke-width="3"/><circle cx="1048" cy="570" r="9" fill="#FFFFFF" stroke="#D18418" stroke-width="3"/><text x="1000" y="548" font-family="Noto Sans SC Thin" font-size="25" font-weight="800" fill="#D18418" text-anchor="middle">AI</text></g>
<path d="M755,340 C835,350 885,470 915,500 M875,345 C900,420 935,450 950,470 M1000,345 L1000,445 M1125,345 C1100,420 1065,450 1050,470" fill="none" stroke="#AFC2CF" stroke-width="2" stroke-linecap="round" stroke-linejoin="round" marker-end="url(#arrow)"/>
<g id="model-iumami-scm" data-editable="true"><rect x="642" y="656" width="116" height="88" rx="15" fill="#FFFFFF" stroke="#2B7FB3" stroke-width="2"/><line x1="665" y1="682" x2="720" y2="682" stroke="#2B7FB3" stroke-width="3" stroke-linecap="round"/><line x1="665" y1="696" x2="703" y2="696" stroke="#2B7FB3" stroke-width="3" stroke-linecap="round"/><line x1="665" y1="710" x2="713" y2="710" stroke="#2B7FB3" stroke-width="3" stroke-linecap="round"/><text x="700" y="766" font-family="Noto Sans SC Thin" font-size="17" font-weight="700" fill="#2B7FB3" text-anchor="middle">iUmami-SCM</text></g>
<g id="model-ensemble" data-editable="true"><rect x="792" y="656" width="116" height="88" rx="15" fill="#FFFFFF" stroke="#138A7E" stroke-width="2"/><line x1="850" y1="678" x2="824" y2="705" stroke="#138A7E" stroke-width="3" stroke-linecap="round"/><line x1="850" y1="678" x2="876" y2="705" stroke="#138A7E" stroke-width="3" stroke-linecap="round"/><line x1="824" y1="705" x2="811" y2="725" stroke="#138A7E" stroke-width="3" stroke-linecap="round"/><line x1="824" y1="705" x2="838" y2="725" stroke="#138A7E" stroke-width="3" stroke-linecap="round"/><circle cx="850" cy="677" r="5" fill="#138A7E" stroke="none" stroke-width="1.5"/><circle cx="811" cy="725" r="5" fill="#138A7E" stroke="none" stroke-width="1.5"/><circle cx="838" cy="725" r="5" fill="#138A7E" stroke="none" stroke-width="1.5"/><circle cx="876" cy="705" r="5" fill="#138A7E" stroke="none" stroke-width="1.5"/><text x="850" y="766" font-family="Noto Sans SC Thin" font-size="17" font-weight="700" fill="#138A7E" text-anchor="middle">集成学习</text></g>
<g id="model-rnn" data-editable="true"><rect x="942" y="656" width="116" height="88" rx="15" fill="#FFFFFF" stroke="#D18418" stroke-width="2"/><path d="M960,708 C977,675 994,735 1010,700 C1024,674 1034,720 1043,692" fill="none" stroke="#D18418" stroke-width="3" stroke-linecap="round" stroke-linejoin="round"/><text x="1000" y="766" font-family="Noto Sans SC Thin" font-size="17" font-weight="700" fill="#D18418" text-anchor="middle">RNN / MLP</text></g>
<g id="model-transformer" data-editable="true"><rect x="1092" y="656" width="116" height="88" rx="15" fill="#FFFFFF" stroke="#7355A5" stroke-width="2"/><circle cx="1126" cy="677" r="4" fill="#7355A5" stroke="none" stroke-width="1.5"/><circle cx="1150" cy="677" r="6" fill="#7355A5" stroke="none" stroke-width="1.5"/><circle cx="1174" cy="677" r="4" fill="#7355A5" stroke="none" stroke-width="1.5"/><circle cx="1126" cy="699" r="6" fill="#7355A5" stroke="none" stroke-width="1.5"/><circle cx="1150" cy="699" r="4" fill="#7355A5" stroke="none" stroke-width="1.5"/><circle cx="1174" cy="699" r="6" fill="#7355A5" stroke="none" stroke-width="1.5"/><circle cx="1126" cy="721" r="4" fill="#7355A5" stroke="none" stroke-width="1.5"/><circle cx="1150" cy="721" r="6" fill="#7355A5" stroke="none" stroke-width="1.5"/><circle cx="1174" cy="721" r="4" fill="#7355A5" stroke="none" stroke-width="1.5"/><text x="1150" y="766" font-family="Noto Sans SC Thin" font-size="17" font-weight="700" fill="#7355A5" text-anchor="middle">Transformer</text></g>
<path d="M1000,630 L1000,640" fill="none" stroke="#D18418" stroke-width="4" stroke-linecap="round" stroke-linejoin="round" marker-end="url(#arrow)"/>
<path d="M700,785 C770,835 855,835 915,835 M850,785 C885,810 910,820 935,830 M1000,785 L1000,815 M1150,785 C1105,815 1080,825 1060,835" fill="none" stroke="#AFC2CF" stroke-width="2" stroke-linecap="round" stroke-linejoin="round"/>
<g id="icon-consensus-ranking" data-editable="true"><path d="M922,800 L1078,800 L1030,863 L1012,863 L1012,920 L988,920 L988,863 L970,863 Z" fill="#EEE8F8" stroke="#7355A5" stroke-width="3" stroke-linecap="round" stroke-linejoin="round"/><rect x="895" y="933" width="66" height="36" rx="18" fill="#EAF4DF" stroke="none" stroke-width="1.5"/><text x="928.0" y="958" font-family="Noto Sans SC Thin" font-size="18" font-weight="700" fill="#5A8F36" text-anchor="middle">DDE</text><rect x="967" y="933" width="66" height="36" rx="18" fill="#EAF4DF" stroke="none" stroke-width="1.5"/><text x="1000.0" y="958" font-family="Noto Sans SC Thin" font-size="18" font-weight="700" fill="#5A8F36" text-anchor="middle">SHHPR</text><rect x="1039" y="933" width="66" height="36" rx="18" fill="#EAF4DF" stroke="none" stroke-width="1.5"/><text x="1072.0" y="958" font-family="Noto Sans SC Thin" font-size="18" font-weight="700" fill="#5A8F36" text-anchor="middle">EELR</text></g>
<text x="1000" y="975" font-family="Noto Sans SC Thin" font-size="19" font-weight="700" fill="#7355A5" text-anchor="middle">共识概率 · 校准 · SHAP · 适用域</text>
<path d="M1085,915 C1205,920 1240,520 1310,520" fill="none" stroke="#6B8495" stroke-width="4" stroke-linecap="round" stroke-linejoin="round" marker-end="url(#arrow)"/>
<g id="icon-t1r1-t1r3-docking" data-editable="true"><circle cx="1340" cy="313" r="6" fill="#F2D6A2" stroke="none" stroke-width="1.5"/><circle cx="1340" cy="417" r="6" fill="#F2D6A2" stroke="none" stroke-width="1.5"/><circle cx="1356" cy="313" r="6" fill="#F2D6A2" stroke="none" stroke-width="1.5"/><circle cx="1356" cy="417" r="6" fill="#F2D6A2" stroke="none" stroke-width="1.5"/><circle cx="1372" cy="313" r="6" fill="#F2D6A2" stroke="none" stroke-width="1.5"/><circle cx="1372" cy="417" r="6" fill="#F2D6A2" stroke="none" stroke-width="1.5"/><circle cx="1388" cy="313" r="6" fill="#F2D6A2" stroke="none" stroke-width="1.5"/><circle cx="1388" cy="417" r="6" fill="#F2D6A2" stroke="none" stroke-width="1.5"/><circle cx="1404" cy="313" r="6" fill="#F2D6A2" stroke="none" stroke-width="1.5"/><circle cx="1404" cy="417" r="6" fill="#F2D6A2" stroke="none" stroke-width="1.5"/><circle cx="1420" cy="313" r="6" fill="#F2D6A2" stroke="none" stroke-width="1.5"/><circle cx="1420" cy="417" r="6" fill="#F2D6A2" stroke="none" stroke-width="1.5"/><circle cx="1436" cy="313" r="6" fill="#F2D6A2" stroke="none" stroke-width="1.5"/><circle cx="1436" cy="417" r="6" fill="#F2D6A2" stroke="none" stroke-width="1.5"/><circle cx="1452" cy="313" r="6" fill="#F2D6A2" stroke="none" stroke-width="1.5"/><circle cx="1452" cy="417" r="6" fill="#F2D6A2" stroke="none" stroke-width="1.5"/><circle cx="1468" cy="313" r="6" fill="#F2D6A2" stroke="none" stroke-width="1.5"/><circle cx="1468" cy="417" r="6" fill="#F2D6A2" stroke="none" stroke-width="1.5"/><circle cx="1484" cy="313" r="6" fill="#F2D6A2" stroke="none" stroke-width="1.5"/><circle cx="1484" cy="417" r="6" fill="#F2D6A2" stroke="none" stroke-width="1.5"/><circle cx="1500" cy="313" r="6" fill="#F2D6A2" stroke="none" stroke-width="1.5"/><circle cx="1500" cy="417" r="6" fill="#F2D6A2" stroke="none" stroke-width="1.5"/><circle cx="1516" cy="313" r="6" fill="#F2D6A2" stroke="none" stroke-width="1.5"/><circle cx="1516" cy="417" r="6" fill="#F2D6A2" stroke="none" stroke-width="1.5"/><circle cx="1532" cy="313" r="6" fill="#F2D6A2" stroke="none" stroke-width="1.5"/><circle cx="1532" cy="417" r="6" fill="#F2D6A2" stroke="none" stroke-width="1.5"/><path d="M1387,265 C1357,298 1373,340 1409,353 C1432,360 1428,392 1410,447" fill="none" stroke="#7355A5" stroke-width="13" stroke-linecap="round" stroke-linejoin="round"/><path d="M1483,265 C1513,298 1497,340 1461,353 C1438,360 1442,392 1460,447" fill="none" stroke="#138A7E" stroke-width="13" stroke-linecap="round" stroke-linejoin="round"/><text x="1371" y="253" font-family="Noto Sans SC Thin" font-size="18" font-weight="700" fill="#7355A5" text-anchor="middle">T1R1</text><text x="1499" y="253" font-family="Noto Sans SC Thin" font-size="18" font-weight="700" fill="#138A7E" text-anchor="middle">T1R3</text><circle cx="1435" cy="332" r="10" fill="#D18418" stroke="none" stroke-width="1.5"/><circle cx="1420" cy="322" r="7" fill="#B64B4B" stroke="none" stroke-width="1.5"/><circle cx="1451" cy="322" r="7" fill="#2B7FB3" stroke="none" stroke-width="1.5"/><line x1="1420" y1="322" x2="1401" y2="298" stroke="#B64B4B" stroke-width="2" stroke-linecap="round" stroke-dasharray="4 4"/><line x1="1451" y1="322" x2="1473" y2="298" stroke="#2B7FB3" stroke-width="2" stroke-linecap="round" stroke-dasharray="4 4"/></g>
<text x="1435" y="510" font-family="Noto Sans SC Thin" font-size="20" font-weight="700" fill="#7355A5" text-anchor="middle">T1R1/T1R3 结合与构象稳定性</text>
<g id="mechanism-tags" data-editable="true"><rect x="1300" y="545" width="90" height="36" rx="18" fill="#FFFFFF" stroke="none" stroke-width="1.5"/><text x="1345.0" y="570" font-family="Noto Sans SC Thin" font-size="18" font-weight="700" fill="#2B7FB3" text-anchor="middle">氢键</text><rect x="1400" y="545" width="90" height="36" rx="18" fill="#FFFFFF" stroke="none" stroke-width="1.5"/><text x="1445.0" y="570" font-family="Noto Sans SC Thin" font-size="18" font-weight="700" fill="#B64B4B" text-anchor="middle">静电</text><rect x="1500" y="545" width="90" height="36" rx="18" fill="#FFFFFF" stroke="none" stroke-width="1.5"/><text x="1545.0" y="570" font-family="Noto Sans SC Thin" font-size="18" font-weight="700" fill="#138A7E" text-anchor="middle">疏水</text><rect x="1595" y="545" width="125" height="36" rx="18" fill="#FFFFFF" stroke="none" stroke-width="1.5"/><text x="1657.5" y="570" font-family="Noto Sans SC Thin" font-size="18" font-weight="700" fill="#7355A5" text-anchor="middle">MD/MM-GBSA</text></g>
<path d="M1435,580 C1435,615 1360,620 1345,660 M1435,580 C1435,615 1495,625 1510,660 M1510,580 C1580,615 1640,620 1660,660" fill="none" stroke="#AFC2CF" stroke-width="2" stroke-linecap="round" stroke-linejoin="round" marker-end="url(#arrow)"/>
<g id="icon-peptide-synthesis" data-editable="true"><rect x="1315" y="677" width="40" height="67" rx="9" fill="#E5F2FA" stroke="#2B7FB3" stroke-width="3"/><rect x="1311" y="667" width="48" height="13" rx="4" fill="#2B7FB3" stroke="none" stroke-width="1.5"/><path d="M1321,720 C1332,710 1340,728 1351,715" fill="none" stroke="#138A7E" stroke-width="3" stroke-linecap="round" stroke-linejoin="round"/></g>
<g id="icon-sensory-tongue" data-editable="true"><path d="M1413,675 C1410,718 1424,760 1455,768 C1486,760 1500,718 1497,675 C1473,688 1437,688 1413,675 Z" fill="#F9E8E8" stroke="#B64B4B" stroke-width="3" stroke-linecap="round" stroke-linejoin="round"/><line x1="1455" y1="692" x2="1455" y2="748" stroke="#B64B4B" stroke-width="2" stroke-linecap="round"/><circle cx="1437" cy="712" r="3" fill="#B64B4B" stroke="none" stroke-width="1.5"/><circle cx="1474" cy="724" r="3" fill="#B64B4B" stroke="none" stroke-width="1.5"/></g>
<g id="icon-electronic-tongue" data-editable="true"><rect x="1530" y="668" width="90" height="84" rx="13" fill="#FFFFFF" stroke="#7355A5" stroke-width="3"/><rect x="1548" y="685" width="54" height="39" rx="5" fill="#EEE8F8" stroke="none" stroke-width="1.5"/><line x1="1555" y1="718" x2="1555" y2="706" stroke="#7355A5" stroke-width="3" stroke-linecap="round"/><line x1="1568" y1="718" x2="1568" y2="693" stroke="#7355A5" stroke-width="3" stroke-linecap="round"/><line x1="1581" y1="718" x2="1581" y2="700" stroke="#7355A5" stroke-width="3" stroke-linecap="round"/><line x1="1594" y1="718" x2="1594" y2="687" stroke="#7355A5" stroke-width="3" stroke-linecap="round"/><line x1="1547" y1="752" x2="1547" y2="765" stroke="#7355A5" stroke-width="2" stroke-linecap="round"/><line x1="1566" y1="752" x2="1566" y2="765" stroke="#7355A5" stroke-width="2" stroke-linecap="round"/><line x1="1585" y1="752" x2="1585" y2="765" stroke="#7355A5" stroke-width="2" stroke-linecap="round"/><line x1="1604" y1="752" x2="1604" y2="765" stroke="#7355A5" stroke-width="2" stroke-linecap="round"/></g>
<g id="icon-food-matrix" data-editable="true"><path d="M1635,710 C1643,760 1737,760 1745,710 Z" fill="#EAF4DF" stroke="#5A8F36" stroke-width="3" stroke-linecap="round" stroke-linejoin="round"/><line x1="1630" y1="710" x2="1750" y2="710" stroke="#5A8F36" stroke-width="4" stroke-linecap="round"/><path d="M1666,697 C1650,670 1682,660 1672,639" fill="none" stroke="#D18418" stroke-width="4" stroke-linecap="round" stroke-linejoin="round"/><path d="M1701,697 C1685,668 1718,661 1708,637" fill="none" stroke="#D18418" stroke-width="4" stroke-linecap="round" stroke-linejoin="round"/></g>
<g id="validation-labels" data-editable="true"><text x="1335" y="790" font-family="Noto Sans SC Thin" font-size="17" font-weight="700" fill="#2B7FB3" text-anchor="middle">合成与纯度</text><text x="1455" y="790" font-family="Noto Sans SC Thin" font-size="17" font-weight="700" fill="#B64B4B" text-anchor="middle">盲法感官阈值</text><text x="1575" y="790" font-family="Noto Sans SC Thin" font-size="17" font-weight="700" fill="#7355A5" text-anchor="middle">电子舌 / SPR</text><text x="1690" y="790" font-family="Noto Sans SC Thin" font-size="17" font-weight="700" fill="#5A8F36" text-anchor="middle">食品基质验证</text></g>
<rect x="1310" y="835" width="405" height="70" rx="35" fill="#FFFFFF" stroke="#5A8F36" stroke-width="3"/>
<text x="1512" y="866" font-family="Noto Sans SC Thin" font-size="23" font-weight="800" fill="#5A8F36" text-anchor="middle">最终判据：真实感官效应</text>
<text x="1512" y="891" font-family="Noto Sans SC Thin" font-size="17" font-weight="600" fill="#B64B4B" text-anchor="middle">预测与对接仅用于优先级排序</text>
<g id="evidence-rail" data-editable="true"><text x="70" y="1005" font-family="Noto Sans SC Thin" font-size="21" font-weight="800" fill="#17324D" text-anchor="start">证据强度</text><path d="M180,995 L1650,995" fill="none" stroke="#AFC2CF" stroke-width="5" stroke-linecap="round" stroke-linejoin="round" marker-end="url(#arrow)"/><circle cx="375" cy="995" r="10" fill="#2B7FB3" stroke="none" stroke-width="1.5"/><circle cx="850" cy="995" r="10" fill="#D18418" stroke="none" stroke-width="1.5"/><circle cx="1300" cy="995" r="10" fill="#7355A5" stroke="none" stroke-width="1.5"/><circle cx="1620" cy="995" r="10" fill="#5A8F36" stroke="none" stroke-width="1.5"/><text x="375" y="1030" font-family="Noto Sans SC Thin" font-size="17" font-weight="700" fill="#2B7FB3" text-anchor="middle">候选</text><text x="850" y="1030" font-family="Noto Sans SC Thin" font-size="17" font-weight="700" fill="#D18418" text-anchor="middle">模型</text><text x="1300" y="1030" font-family="Noto Sans SC Thin" font-size="17" font-weight="700" fill="#7355A5" text-anchor="middle">机制</text><text x="1620" y="1030" font-family="Noto Sans SC Thin" font-size="17" font-weight="700" fill="#5A8F36" text-anchor="middle">实证</text></g>
<g id="active-learning-loop" data-editable="true"><path d="M1660,930 C1680,1135 405,1145 245,930" fill="none" stroke="#138A7E" stroke-width="4" stroke-linecap="round" stroke-linejoin="round" marker-end="url(#arrow)" stroke-dasharray="10 8"/><rect x="620" y="1083" width="570" height="55" rx="28" fill="#E2F4F0" stroke="#138A7E" stroke-width="2"/><text x="905" y="1118" font-family="Noto Sans SC Thin" font-size="21" font-weight="800" fill="#138A7E" text-anchor="middle">主动学习：实验标签回流 → 数据更新 → 模型再训练</text></g>
<g id="footer" data-editable="true"><text x="70" y="1170" font-family="Noto Sans SC Thin" font-size="18" font-weight="600" fill="#5B7082" text-anchor="start">质量控制：同源聚类划分 · 外部测试 · MCC/AUPRC · 防止数据泄漏 · 对接分数不等于鲜味阈值</text><text x="1730" y="1170" font-family="Noto Sans SC Thin" font-size="17" font-weight="600" fill="#5B7082" text-anchor="end">文献综合 [1–7]  ·  CC BY 4.0</text></g>
</svg>